<svg width="32" height="32" viewBox="0 0 32 32" fill="none" xmlns="http://www.w3.org/2000/svg">
<path d="M10.666 8.00002C10.666 5.0545 13.0538 2.66669 15.9993 2.66669C18.9449 2.66669 21.3327 5.0545 21.3327 8.00002C21.3327 10.9455 18.9449 13.3334 15.9993 13.3334C13.0538 13.3334 10.666 10.9455 10.666 8.00002Z" fill="#542600"/>
<path d="M6.56873 22.5377L5.84803 26.5015C5.57993 27.976 6.71274 29.3334 8.21146 29.3334H23.7882C25.2869 29.3334 26.4197 27.976 26.1516 26.5015L25.4309 22.5376C24.6022 17.9797 20.6324 14.6667 15.9998 14.6667C11.3672 14.6667 7.39744 17.9797 6.56873 22.5377Z" fill="white"/>
<path fill-rule="evenodd" clip-rule="evenodd" d="M27.5002 12.2922C28.0753 12.7522 28.1685 13.5912 27.7085 14.1662L22.3751 20.8329C22.1382 21.1291 21.7864 21.3103 21.4077 21.3313C21.029 21.3523 20.6594 21.211 20.3912 20.9428L17.7245 18.2761C17.2038 17.7554 17.2038 16.9112 17.7245 16.3905C18.2452 15.8698 19.0894 15.8698 19.6101 16.3905L21.2234 18.0038L25.6262 12.5004C26.0862 11.9254 26.9252 11.8322 27.5002 12.2922Z" fill="#542600"/>
</svg>
