<svg width="32" height="32" viewBox="0 0 32 32" fill="none" xmlns="http://www.w3.org/2000/svg">
<path d="M5.33398 9.33331C5.33398 7.12417 7.12485 5.33331 9.33398 5.33331H22.6673C24.8765 5.33331 26.6673 7.12417 26.6673 9.33331V25.3333C26.6673 27.5425 24.8765 29.3333 22.6673 29.3333H9.33398C7.12485 29.3333 5.33398 27.5425 5.33398 25.3333V9.33331Z" fill="white"/>
<path d="M10.666 5.33335C10.666 3.86059 11.8599 2.66669 13.3327 2.66669H18.666C20.1388 2.66669 21.3327 3.86059 21.3327 5.33335C21.3327 6.80611 20.1388 8.00002 18.666 8.00002H13.3327C11.8599 8.00002 10.666 6.80611 10.666 5.33335Z" fill="#542600"/>
<path fill-rule="evenodd" clip-rule="evenodd" d="M20.8323 12.2922C21.4073 12.7522 21.5005 13.5912 21.0405 14.1662L15.7072 20.8329C15.4703 21.1291 15.1184 21.3103 14.7397 21.3313C14.3611 21.3523 13.9914 21.211 13.7232 20.9428L11.0565 18.2761C10.5358 17.7554 10.5358 16.9112 11.0565 16.3905C11.5772 15.8698 12.4215 15.8698 12.9422 16.3905L14.5555 18.0038L18.9582 12.5004C19.4182 11.9254 20.2573 11.8322 20.8323 12.2922Z" fill="#542600"/>
</svg>
