<svg width="400" height="400" viewBox="0 0 400 400" fill="none" xmlns="http://www.w3.org/2000/svg">
<path fill-rule="evenodd" clip-rule="evenodd" d="M87.5 62.5C87.5 56.9747 89.6949 51.6756 93.6019 47.7686C97.5089 43.8616 102.808 41.6667 108.333 41.6667C113.859 41.6667 119.158 43.8616 123.065 47.7686C126.972 51.6756 129.167 56.9747 129.167 62.5C129.167 68.0253 126.972 73.3244 123.065 77.2314C119.158 81.1384 113.859 83.3333 108.333 83.3333C102.808 83.3333 97.5089 81.1384 93.6019 77.2314C89.6949 73.3244 87.5 68.0253 87.5 62.5ZM108.333 0C91.7573 0 75.8602 6.5848 64.1392 18.3058C52.4181 30.0268 45.8333 45.924 45.8333 62.5C45.8333 79.076 52.4181 94.9731 64.1392 106.694C75.8602 118.415 91.7573 125 108.333 125C124.909 125 140.806 118.415 152.528 106.694C164.249 94.9731 170.833 79.076 170.833 62.5C170.833 45.924 164.249 30.0268 152.528 18.3058C140.806 6.5848 124.909 0 108.333 0ZM340.983 259.95C346.817 260.867 351.95 262.083 356.233 263.283C360.862 264.618 365.404 266.237 369.833 268.133L370.783 268.567L371.117 268.733L371.233 268.8L371.283 268.817H371.317L362.067 287.5L371.333 268.833L381.05 273.667L382.667 284.417L396.417 376.083L400 400H240.283L243.867 376.083L257.633 284.417L259.233 273.667L268.95 268.833L278.233 287.5L268.967 268.833H269L269.05 268.8L269.183 268.733L269.517 268.567C270.842 267.945 272.187 267.367 273.55 266.833C276.992 265.49 280.496 264.311 284.05 263.3C289.069 261.891 294.167 260.778 299.317 259.967V45.8333H340.983V259.95ZM288.667 358.333L296.967 302.95C304.532 300.983 312.317 299.992 320.133 300C327.95 299.992 335.735 300.983 343.3 302.95L351.633 358.333H288.667ZM210 170L209.967 169.983L209.9 169.933L209.733 169.817L209.267 169.483L207.717 168.417C205.937 167.231 204.119 166.103 202.267 165.033C195.843 161.32 189.152 158.089 182.25 155.367C164.933 148.45 139.917 141.667 108.333 141.667C76.75 141.667 51.7333 148.433 34.4333 155.367C27.5374 158.085 20.8524 161.31 14.4333 165.017C12.0398 166.397 9.70442 167.876 7.43333 169.45L6.93333 169.783L6.76667 169.917L6.71667 169.967H6.68333V169.983C6.68333 169.983 6.66667 170 16.6667 183.333L6.66667 170L0 175V308.333H33.3333V400H183.333V308.333H216.667V175L210 170Z" fill="#1976D2FF"/>
</svg>
