<svg width="397" height="396" viewBox="0 0 397 396" fill="none" xmlns="http://www.w3.org/2000/svg">
<path d="M179.666 0.331543H213L219 1.33154C268.084 3.52702 316.488 13.6582 362.333 31.3315C374.166 35.8315 385.666 41.1649 396.666 45.9982C402 188.665 344.666 314.165 198.833 395.998C135.916 361.838 83.4859 311.194 47.1664 249.498C13.2826 187.184 -2.53317 116.648 1.49975 45.8315C45.7886 24.2083 93.3957 10.1797 142.333 4.33154C154.833 2.66488 167.166 1.66488 179.666 0.331543ZM191.333 210.165L187 205.498C175.666 192.332 164.5 178.998 153.666 165.832C150.659 162.638 147.03 160.094 143.003 158.355C138.976 156.615 134.636 155.718 130.25 155.718C125.863 155.718 121.523 156.615 117.496 158.355C113.469 160.094 109.84 162.638 106.833 165.832L192 264.665L311.333 107.998C311.333 106.998 311.333 106.498 310.166 106.332C306.822 104.268 302.814 103.568 298.968 104.374C295.123 105.18 291.733 107.432 289.5 110.665C272.833 127.332 257.333 143.998 241.333 159.498L191.333 210.165Z" fill="#1976D2FF"/>
</svg>
