<svg width="300" height="351" viewBox="0 0 300 351" fill="none" xmlns="http://www.w3.org/2000/svg">
<path d="M0 350.667V84.0001H50V0.666748H250V84.0001H300V350.667H0ZM83.3333 84.0001H216.667V34.0001H83.3333V84.0001ZM150 292.333C170.833 292.333 188.544 285.045 203.133 270.467C217.722 255.889 225.011 238.178 225 217.333C224.989 196.489 217.7 178.783 203.133 164.217C188.567 149.65 170.856 142.356 150 142.333C129.144 142.311 111.439 149.606 96.8833 164.217C82.3278 178.828 75.0333 196.533 75 217.333C74.9667 238.133 82.2611 255.845 96.8833 270.467C111.506 285.089 129.211 292.378 150 292.333ZM169.167 248.167L180.833 236.5L158.333 214V175.667H141.667V220.667L169.167 248.167Z" fill="#1976D2FF"/>
</svg>
