<svg width="300" height="400" viewBox="0 0 300 400" fill="none" xmlns="http://www.w3.org/2000/svg">
<path d="M300 50V400H0V50H100C100 43.099 101.302 36.6536 103.906 30.6641C106.51 24.6745 110.091 19.3359 114.648 14.6484C119.206 9.96094 124.479 6.38021 130.469 3.90625C136.458 1.43229 142.969 0.130208 150 0C156.901 0 163.346 1.30208 169.336 3.90625C175.326 6.51042 180.664 10.0911 185.352 14.6484C190.039 19.2057 193.62 24.4792 196.094 30.4688C198.568 36.4583 199.87 42.9688 200 50H300ZM75 100H225V75H175V50C175 46.4844 174.349 43.2292 173.047 40.2344C171.745 37.2396 169.987 34.6354 167.773 32.4219C165.56 30.2083 162.891 28.3854 159.766 26.9531C156.641 25.5208 153.385 24.8698 150 25C146.484 25 143.229 25.651 140.234 26.9531C137.24 28.2552 134.635 30.013 132.422 32.2266C130.208 34.4401 128.385 37.1094 126.953 40.2344C125.521 43.3594 124.87 46.6146 125 50V75H75V100ZM150 300H125V325H150V300ZM150 150H125V275H150V150Z" fill="#1976D2FF"/>
</svg>
