<svg width="24" height="24" viewBox="0 0 24 24" fill="none" xmlns="http://www.w3.org/2000/svg">
<path d="M1.62508 4.26907C2.45189 2.86641 3.97841 2.00177 5.63158 2H18.3684C20.9266 1.99911 23.0005 4.03153 23 6.53815V9H1V6.53815C1.0009 5.74087 1.2162 4.95821 1.62508 4.26907Z" fill="white"/>
<path d="M1 9H23V19.5753C23.0005 22.0192 20.9266 24.0004 18.3684 24H5.63158C3.07336 24.0004 0.999096 22.0192 1 19.5753V9Z" fill="white"/>
<path d="M7 6C6.44844 5.99838 6.00156 5.53368 6 4.96012V1.03988C6 0.465507 6.44766 0 7 0C7.55234 0 8 0.465507 8 1.03988V4.96012C7.99844 5.53368 7.55156 5.99838 7 6Z" fill="#A0C5FF"/>
<path d="M17 6C16.4484 5.99838 16.0016 5.53368 16 4.96012V1.03988C16 0.465507 16.4477 0 17 0C17.5523 0 18 0.465507 18 1.03988V4.96012C17.9984 5.53368 17.5516 5.99838 17 6Z" fill="#A0C5FF"/>
<circle cx="16.5" cy="16.5" r="3.5" fill="#223D67"/>
</svg>
