<svg width="24" height="24" viewBox="0 0 24 24" fill="none" xmlns="http://www.w3.org/2000/svg">
<g clip-path="url(#clip0_1053_14458)">
<circle cx="12" cy="12" r="12" fill="white"/>
<path fill-rule="evenodd" clip-rule="evenodd" d="M4 12C4 12.5523 3.55228 13 3 13H2C1.44772 13 1 12.5523 1 12C1 11.4477 1.44772 11 2 11H3C3.55228 11 4 11.4477 4 12Z" fill="#A0C5FF"/>
<path fill-rule="evenodd" clip-rule="evenodd" d="M6.34319 6.34334C5.95266 6.73386 5.3195 6.73386 4.92897 6.34334L4.22187 5.63623C3.83134 5.24571 3.83134 4.61254 4.22187 4.22202C4.61239 3.83149 5.24556 3.83149 5.63608 4.22202L6.34319 4.92912C6.73371 5.31965 6.73371 5.95281 6.34319 6.34334Z" fill="#A0C5FF"/>
<path fill-rule="evenodd" clip-rule="evenodd" d="M12 23C11.4477 23 11 22.5523 11 22L11 21C11 20.4477 11.4477 20 12 20C12.5523 20 13 20.4477 13 21L13 22C13 22.5523 12.5523 23 12 23Z" fill="#A0C5FF"/>
<path fill-rule="evenodd" clip-rule="evenodd" d="M4.2216 19.7782C3.83108 19.3877 3.83108 18.7546 4.2216 18.364L4.92871 17.6569C5.31924 17.2664 5.9524 17.2664 6.34292 17.6569C6.73345 18.0474 6.73345 18.6806 6.34292 19.0711L5.63582 19.7782C5.24529 20.1688 4.61213 20.1688 4.2216 19.7782Z" fill="#A0C5FF"/>
<path fill-rule="evenodd" clip-rule="evenodd" d="M12 6.5C12.5523 6.5 13 6.94772 13 7.5V12.5858L15.7071 15.2929C16.0976 15.6834 16.0976 16.3166 15.7071 16.7071C15.3166 17.0976 14.6834 17.0976 14.2929 16.7071L11.2929 13.7071C11.1054 13.5196 11 13.2652 11 13V7.5C11 6.94772 11.4477 6.5 12 6.5Z" fill="#223D67"/>
</g>
<defs>
<clipPath id="clip0_1053_14458">
<rect width="24" height="24" fill="white"/>
</clipPath>
</defs>
</svg>
