<svg width="24" height="24" viewBox="0 0 24 24" fill="none" xmlns="http://www.w3.org/2000/svg">
<g clip-path="url(#clip0_807_42327)">
<path d="M6 12C6 13.1 5.1 14 4 14C2.9 14 2 13.1 2 12C2 10.9 2.9 10 4 10C5.1 10 6 10.9 6 12Z" fill="#A0C5FF"/>
<path d="M4 15C4.39 15 5.76 15.04 6.13 15.1C5 16 4.5 16.56 4.5 17.39V19H1C0.45 19 0 18.55 0 18V17.43C0 16.62 0.48 15.9 1.22 15.58C2.07 15.21 3.01 15 4 15Z" fill="#A0C5FF"/>
<path d="M22 12C22 13.1 21.1 14 20 14C18.9 14 18 13.1 18 12C18 10.9 18.9 10 20 10C21.1 10 22 10.9 22 12Z" fill="#A0C5FF"/>
<path d="M22.78 15.58C23.52 15.9 24 16.62 24 17.43V18C24 18.55 23.55 19 23 19H19.5V17.39C19.5 16.56 19 16 17.87 15.1C18.24 15.04 19.61 15 20 15C20.99 15 21.93 15.21 22.78 15.58Z" fill="#A0C5FF"/>
<path d="M12 13C14.1733 13 16.0933 13.52 17.6533 14.2C19.0933 14.84 20 16.28 20 17.84V18.6667C20 19.4 19.4 20 18.6667 20H5.33333C4.6 20 4 19.4 4 18.6667V17.8533C4 16.28 4.90667 14.84 6.34667 14.2133C7.90667 13.52 9.82667 13 12 13ZM12 4C14.2133 4 16 5.78667 16 8C16 10.2133 14.2133 12 12 12C9.78667 12 8 10.2133 8 8C8 5.78667 9.78667 4 12 4Z" fill="white"/>
</g>
<defs>
<clipPath id="clip0_807_42327">
<rect width="24" height="24" fill="white"/>
</clipPath>
</defs>
</svg>
