<?xml version="1.0" encoding="UTF-8"?>
<svg version="1.1" xmlns="http://www.w3.org/2000/svg" width="128" height="128">
<path d="M0 0 C0.82593155 -0.00428513 1.6518631 -0.00857025 2.50282288 -0.01298523 C4.24690841 -0.01871941 5.99101786 -0.01923551 7.73510742 -0.01489258 C10.39738949 -0.0117339 13.05855846 -0.0351978 15.72070312 -0.06054688 C17.41796735 -0.06282016 19.11523456 -0.06352323 20.8125 -0.0625 C21.60534897 -0.07170975 22.39819794 -0.08091949 23.21507263 -0.09040833 C27.76321337 -0.05250945 30.8294778 0.28080614 34.47265625 3.30078125 C37.30708084 6.92578511 36.77847937 11.43091426 36.7734375 15.828125 C36.77772263 16.65405655 36.78200775 17.4799881 36.78642273 18.33094788 C36.79215691 20.07503341 36.79267301 21.81914286 36.78833008 23.56323242 C36.7851714 26.22551449 36.8086353 28.88668346 36.83398438 31.54882812 C36.83625766 33.24609235 36.83696073 34.94335956 36.8359375 36.640625 C36.84514725 37.43347397 36.85435699 38.22632294 36.86384583 39.04319763 C36.82594695 43.59133837 36.49263136 46.6576028 33.47265625 50.30078125 C29.84765239 53.13520584 25.34252324 52.60660437 20.9453125 52.6015625 C20.11938095 52.60584763 19.2934494 52.61013275 18.44248962 52.61454773 C16.69840409 52.62028191 14.95429464 52.62079801 13.21020508 52.61645508 C10.54792301 52.6132964 7.88675404 52.6367603 5.22460938 52.66210938 C3.52734515 52.66438266 1.83007794 52.66508573 0.1328125 52.6640625 C-0.66003647 52.67327225 -1.45288544 52.68248199 -2.26976013 52.69197083 C-6.81790087 52.65407195 -9.8841653 52.32075636 -13.52734375 49.30078125 C-16.36176834 45.67577739 -15.83316687 41.17064824 -15.828125 36.7734375 C-15.83241013 35.94750595 -15.83669525 35.1215744 -15.84111023 34.27061462 C-15.84684441 32.52652909 -15.84736051 30.78241964 -15.84301758 29.03833008 C-15.8398589 26.37604801 -15.8633228 23.71487904 -15.88867188 21.05273438 C-15.89094516 19.35547015 -15.89164823 17.65820294 -15.890625 15.9609375 C-15.89983475 15.16808853 -15.90904449 14.37523956 -15.91853333 13.55836487 C-15.88063445 9.01022413 -15.54731886 5.9439597 -12.52734375 2.30078125 C-8.90233989 -0.53364334 -4.39721074 -0.00504187 0 0 Z " fill="#ffffff" transform="translate(21.52734375,69.69921875)"/>
<path d="M0 0 C0.82593155 -0.00428513 1.6518631 -0.00857025 2.50282288 -0.01298523 C4.24690841 -0.01871941 5.99101786 -0.01923551 7.73510742 -0.01489258 C10.39738949 -0.0117339 13.05855846 -0.0351978 15.72070312 -0.06054688 C17.41796735 -0.06282016 19.11523456 -0.06352323 20.8125 -0.0625 C21.60534897 -0.07170975 22.39819794 -0.08091949 23.21507263 -0.09040833 C27.76321337 -0.05250945 30.8294778 0.28080614 34.47265625 3.30078125 C37.30708084 6.92578511 36.77847937 11.43091426 36.7734375 15.828125 C36.77772263 16.65405655 36.78200775 17.4799881 36.78642273 18.33094788 C36.79215691 20.07503341 36.79267301 21.81914286 36.78833008 23.56323242 C36.7851714 26.22551449 36.8086353 28.88668346 36.83398438 31.54882812 C36.83625766 33.24609235 36.83696073 34.94335956 36.8359375 36.640625 C36.84514725 37.43347397 36.85435699 38.22632294 36.86384583 39.04319763 C36.82594695 43.59133837 36.49263136 46.6576028 33.47265625 50.30078125 C29.84765239 53.13520584 25.34252324 52.60660437 20.9453125 52.6015625 C20.11938095 52.60584763 19.2934494 52.61013275 18.44248962 52.61454773 C16.69840409 52.62028191 14.95429464 52.62079801 13.21020508 52.61645508 C10.54792301 52.6132964 7.88675404 52.6367603 5.22460938 52.66210938 C3.52734515 52.66438266 1.83007794 52.66508573 0.1328125 52.6640625 C-0.66003647 52.67327225 -1.45288544 52.68248199 -2.26976013 52.69197083 C-6.81790087 52.65407195 -9.8841653 52.32075636 -13.52734375 49.30078125 C-16.36176834 45.67577739 -15.83316687 41.17064824 -15.828125 36.7734375 C-15.83241013 35.94750595 -15.83669525 35.1215744 -15.84111023 34.27061462 C-15.84684441 32.52652909 -15.84736051 30.78241964 -15.84301758 29.03833008 C-15.8398589 26.37604801 -15.8633228 23.71487904 -15.88867188 21.05273438 C-15.89094516 19.35547015 -15.89164823 17.65820294 -15.890625 15.9609375 C-15.89983475 15.16808853 -15.90904449 14.37523956 -15.91853333 13.55836487 C-15.88063445 9.01022413 -15.54731886 5.9439597 -12.52734375 2.30078125 C-8.90233989 -0.53364334 -4.39721074 -0.00504187 0 0 Z " fill="#ffffff" transform="translate(85.52734375,5.69921875)"/>
<path d="M0 0 C0.82593155 -0.00428513 1.6518631 -0.00857025 2.50282288 -0.01298523 C4.24690841 -0.01871941 5.99101786 -0.01923551 7.73510742 -0.01489258 C10.39738949 -0.0117339 13.05855846 -0.0351978 15.72070312 -0.06054688 C17.41796735 -0.06282016 19.11523456 -0.06352323 20.8125 -0.0625 C21.60534897 -0.07170975 22.39819794 -0.08091949 23.21507263 -0.09040833 C27.76321337 -0.05250945 30.8294778 0.28080614 34.47265625 3.30078125 C37.30708084 6.92578511 36.77847937 11.43091426 36.7734375 15.828125 C36.77772263 16.65405655 36.78200775 17.4799881 36.78642273 18.33094788 C36.79215691 20.07503341 36.79267301 21.81914286 36.78833008 23.56323242 C36.7851714 26.22551449 36.8086353 28.88668346 36.83398438 31.54882812 C36.83625766 33.24609235 36.83696073 34.94335956 36.8359375 36.640625 C36.84514725 37.43347397 36.85435699 38.22632294 36.86384583 39.04319763 C36.82594695 43.59133837 36.49263136 46.6576028 33.47265625 50.30078125 C29.84765239 53.13520584 25.34252324 52.60660437 20.9453125 52.6015625 C20.11938095 52.60584763 19.2934494 52.61013275 18.44248962 52.61454773 C16.69840409 52.62028191 14.95429464 52.62079801 13.21020508 52.61645508 C10.54792301 52.6132964 7.88675404 52.6367603 5.22460938 52.66210938 C3.52734515 52.66438266 1.83007794 52.66508573 0.1328125 52.6640625 C-0.66003647 52.67327225 -1.45288544 52.68248199 -2.26976013 52.69197083 C-6.81790087 52.65407195 -9.8841653 52.32075636 -13.52734375 49.30078125 C-16.36176834 45.67577739 -15.83316687 41.17064824 -15.828125 36.7734375 C-15.83241013 35.94750595 -15.83669525 35.1215744 -15.84111023 34.27061462 C-15.84684441 32.52652909 -15.84736051 30.78241964 -15.84301758 29.03833008 C-15.8398589 26.37604801 -15.8633228 23.71487904 -15.88867188 21.05273438 C-15.89094516 19.35547015 -15.89164823 17.65820294 -15.890625 15.9609375 C-15.89983475 15.16808853 -15.90904449 14.37523956 -15.91853333 13.55836487 C-15.88063445 9.01022413 -15.54731886 5.9439597 -12.52734375 2.30078125 C-8.90233989 -0.53364334 -4.39721074 -0.00504187 0 0 Z " fill="#ffffff" transform="translate(21.52734375,5.69921875)"/>
<path d="M0 0 C1.87841797 1.30322266 1.87841797 1.30322266 3.7421875 3.0390625 C4.77931885 3.99377441 4.77931885 3.99377441 5.83740234 4.96777344 C6.55105957 5.6384082 7.2647168 6.30904297 8 7 C8.70721191 7.63711914 9.41442383 8.27423828 10.14306641 8.93066406 C12.29497248 10.87961576 14.39906305 12.87132865 16.5 14.875 C17.22703125 15.53113281 17.9540625 16.18726562 18.703125 16.86328125 C22.28209473 20.31443063 24.47106086 22.66872626 24.62890625 27.78125 C24.33169271 33.42010397 20.88474052 36.25229787 17 40 C15.75254422 41.264304 14.50801739 42.53150126 13.265625 43.80078125 C10.59782094 46.51200346 7.92571492 49.21837476 5.23046875 51.90234375 C4.65707764 52.47460693 4.08368652 53.04687012 3.49291992 53.63647461 C0.6827636 56.20306874 -2.04233116 56.54231735 -5.81640625 56.44140625 C-10.29066368 55.53694992 -12.90603219 52.16186052 -16 49 C-17.2664898 47.75343869 -18.53489493 46.50882182 -19.8046875 45.265625 C-22.51412262 42.59736378 -25.21887771 39.9248668 -27.90234375 37.23046875 C-28.47460693 36.65707764 -29.04687012 36.08368652 -29.63647461 35.49291992 C-32.20306874 32.6827636 -32.54231735 29.95766884 -32.44140625 26.18359375 C-31.53694992 21.70933632 -28.16186052 19.09396781 -25 16 C-23.75343869 14.7335102 -22.50882182 13.46510507 -21.265625 12.1953125 C-18.59736378 9.48587738 -15.9248668 6.78112229 -13.23046875 4.09765625 C-12.65707764 3.52539307 -12.08368652 2.95312988 -11.49291992 2.36352539 C-8.16581614 -0.67521126 -4.27611461 -0.91800903 0 0 Z " fill="#ffffff" transform="translate(100,68)"/>
</svg>
