<svg width="32" height="32" viewBox="0 0 32 32" fill="none" xmlns="http://www.w3.org/2000/svg">
<path d="M5.33398 9.33331C5.33398 7.12417 7.12485 5.33331 9.33398 5.33331H22.6673C24.8765 5.33331 26.6673 7.12417 26.6673 9.33331V25.3333C26.6673 27.5425 24.8765 29.3333 22.6673 29.3333H9.33398C7.12485 29.3333 5.33398 27.5425 5.33398 25.3333V9.33331Z" fill="white"/>
<path d="M10.666 5.33335C10.666 3.86059 11.8599 2.66669 13.3327 2.66669H18.666C20.1388 2.66669 21.3327 3.86059 21.3327 5.33335C21.3327 6.80611 20.1388 8.00002 18.666 8.00002H13.3327C11.8599 8.00002 10.666 6.80611 10.666 5.33335Z" fill="#542600"/>
<path fill-rule="evenodd" clip-rule="evenodd" d="M10.6673 16C11.4037 16 12.0007 16.597 12.0007 17.3333V22.6667C12.0007 23.403 11.4037 24 10.6673 24C9.93094 24 9.33398 23.403 9.33398 22.6667V17.3333C9.33398 16.597 9.93094 16 10.6673 16Z" fill="#542600"/>
<path fill-rule="evenodd" clip-rule="evenodd" d="M15.9993 12C16.7357 12 17.3327 12.597 17.3327 13.3333L17.3327 22.6667C17.3327 23.403 16.7357 24 15.9993 24C15.263 24 14.666 23.403 14.666 22.6667L14.666 13.3333C14.666 12.597 15.263 12 15.9993 12Z" fill="#542600"/>
<path fill-rule="evenodd" clip-rule="evenodd" d="M21.3333 18.6667C22.0697 18.6667 22.6667 19.2636 22.6667 20L22.6667 22.6667C22.6667 23.4031 22.0697 24 21.3333 24C20.597 24 20 23.4031 20 22.6667L20 20C20 19.2636 20.597 18.6667 21.3333 18.6667Z" fill="#542600"/>
</svg>
