<svg width="24" height="24" viewBox="0 0 24 24" fill="none" xmlns="http://www.w3.org/2000/svg">
<g clip-path="url(#clip0_1053_14468)">
<path d="M20 0H4C1.79086 0 0 1.79086 0 4V17.1716C0 17.702 0.210714 18.2107 0.585787 18.5858L5.41421 23.4142C5.78929 23.7893 6.29799 24 6.82843 24H20C22.2091 24 24 22.2091 24 20V4C24 1.79086 22.2091 0 20 0Z" fill="white"/>
<path d="M17.9198 5H6.08023C5.48357 5 5 5.44766 5 6C5 6.55195 5.48357 7 6.08023 7H17.9198C18.516 7 19 6.55195 19 6C19 5.44766 18.516 5 17.9198 5Z" fill="#A0C5FF"/>
<path d="M12.9208 10H6.07916C5.48309 10 5 10.4477 5 11C5 11.552 5.48309 12 6.07916 12H12.9208C13.5169 12 14 11.552 14 11C14 10.4477 13.5169 10 12.9208 10Z" fill="#A0C5FF"/>
<mask id="mask0_1053_14468" style="mask-type:alpha" maskUnits="userSpaceOnUse" x="0" y="0" width="24" height="24">
<path d="M20 0H4C1.79086 0 0 1.79086 0 4V17.1716C0 17.702 0.210714 18.2107 0.585787 18.5858L5.41421 23.4142C5.78929 23.7893 6.29799 24 6.82843 24H20C22.2091 24 24 22.2091 24 20V4C24 1.79086 22.2091 0 20 0Z" fill="#235DB9"/>
</mask>
<g mask="url(#mask0_1053_14468)">
<path d="M6 17H-1L7 25V18C7 17.4477 6.55228 17 6 17Z" fill="#223D67"/>
</g>
</g>
<defs>
<clipPath id="clip0_1053_14468">
<rect width="24" height="24" fill="white"/>
</clipPath>
</defs>
</svg>
