<svg width="24" height="24" viewBox="0 0 24 24" fill="none" xmlns="http://www.w3.org/2000/svg">
<g clip-path="url(#clip0_807_42335)">
<path d="M10 4C8.02219 4 6.08879 4.58649 4.4443 5.6853C2.79981 6.78412 1.51809 8.3459 0.761209 10.1732C0.00433284 12.0004 -0.193701 14.0111 0.192152 15.9509C0.578004 17.8907 1.53041 19.6725 2.92894 21.0711C4.32746 22.4696 6.10929 23.422 8.0491 23.8079C9.98891 24.1937 11.9996 23.9957 13.8268 23.2388C15.6541 22.4819 17.2159 21.2002 18.3147 19.5557C19.4135 17.9112 20 15.9778 20 14H10V4Z" fill="white"/>
<path d="M24 12C24 10.4241 23.6896 8.86371 23.0866 7.4078C22.4835 5.95189 21.5996 4.62902 20.4853 3.51472C19.371 2.40041 18.0481 1.5165 16.5922 0.913445C15.1363 0.310389 13.5759 -2.5674e-07 12 0L12 12H24Z" fill="#A0C5FF"/>
</g>
<defs>
<clipPath id="clip0_807_42335">
<rect width="24" height="24" fill="white"/>
</clipPath>
</defs>
</svg>
