<svg width="32" height="32" viewBox="0 0 32 32" fill="none" xmlns="http://www.w3.org/2000/svg">
<path d="M2.66602 9.33331C2.66602 7.12417 4.45688 5.33331 6.66602 5.33331H25.3327C27.5418 5.33331 29.3327 7.12417 29.3327 9.33331V25.3333C29.3327 27.5425 27.5418 29.3333 25.3327 29.3333H6.66602C4.45688 29.3333 2.66602 27.5425 2.66602 25.3333V9.33331Z" fill="white"/>
<path d="M2.66602 9.33331C2.66602 7.12417 4.45688 5.33331 6.66602 5.33331H25.3327C27.5418 5.33331 29.3327 7.12417 29.3327 9.33331V13.3333H2.66602V9.33331Z" fill="#542600"/>
<path d="M21.334 4.00002C21.334 3.26364 21.9309 2.66669 22.6673 2.66669C23.4037 2.66669 24.0007 3.26364 24.0007 4.00002V6.66669C24.0007 7.40307 23.4037 8.00002 22.6673 8.00002C21.9309 8.00002 21.334 7.40307 21.334 6.66669V4.00002Z" fill="#542600"/>
<path d="M14.666 4.00002C14.666 3.26364 15.263 2.66669 15.9993 2.66669C16.7357 2.66669 17.3327 3.26364 17.3327 4.00002V6.66669C17.3327 7.40307 16.7357 8.00002 15.9993 8.00002C15.263 8.00002 14.666 7.40307 14.666 6.66669V4.00002Z" fill="#542600"/>
<path d="M8 4.00002C8 3.26364 8.59695 2.66669 9.33333 2.66669C10.0697 2.66669 10.6667 3.26364 10.6667 4.00002V6.66669C10.6667 7.40307 10.0697 8.00002 9.33333 8.00002C8.59695 8.00002 8 7.40307 8 6.66669V4.00002Z" fill="#542600"/>
</svg>
