<svg width="198" height="148" viewBox="0 0 198 148" fill="none" xmlns="http://www.w3.org/2000/svg">
<g opacity="0.2">
<path fill-rule="evenodd" clip-rule="evenodd" d="M197.953 81.721C197.953 98.7645 191.791 114.295 181.651 126.033C170.018 139.503 153.149 147.972 134.346 148C126.128 148.012 118.27 146.402 111.053 143.463C107.321 141.942 103.144 142.117 99.5293 143.918C95.2895 146.028 90.5419 147.211 85.5286 147.211C83.4577 147.211 81.4296 147.008 79.4679 146.622C73.8683 145.524 68.7727 142.926 64.5879 139.247C61.958 136.933 58.5897 135.77 55.1472 135.774H55.0887C43.7136 135.774 33.1475 132.185 24.375 126.033C16.5324 120.54 10.1281 113.002 5.86104 104.152C2.14082 96.4389 0.0465088 87.7262 0.0465088 78.5049C0.0465088 46.8778 24.6918 21.2353 55.0887 21.2353C58.1875 21.2353 61.2235 21.5076 64.1854 22.0157C72.0279 8.80603 86.072 0 102.093 0C108.857 0 115.269 1.56949 121.009 4.38295C126.468 7.04987 131.322 10.8395 135.292 15.4578C148.773 15.6814 161.238 20.2636 171.441 27.9109C187.501 39.9416 197.953 59.5627 197.953 81.721Z" fill="url(#paint0_linear_616_20156)"/>
</g>
<g clip-path="url(#clip0_616_20156)">
<g opacity="0.5">
<g opacity="0.5">
<g opacity="0.5">
<path opacity="0.5" fill-rule="evenodd" clip-rule="evenodd" d="M197.953 81.721C197.953 98.7645 191.791 114.295 181.651 126.033C170.018 139.503 153.149 147.972 134.346 148C126.128 148.012 118.27 146.402 111.053 143.463C107.321 141.942 103.144 142.117 99.5293 143.918C95.2895 146.028 90.5419 147.211 85.5286 147.211C83.4577 147.211 81.4296 147.008 79.4679 146.622C73.8683 145.524 68.7727 142.926 64.5879 139.247C61.958 136.933 58.5897 135.77 55.1472 135.774H55.0887C43.7136 135.774 33.1475 132.185 24.375 126.033C16.5324 120.54 10.1281 113.002 5.86104 104.152C2.14084 96.4389 0.0465088 87.7262 0.0465088 78.5049C0.0465088 46.8779 24.6918 21.2353 55.0887 21.2353C58.1875 21.2353 61.2235 21.5076 64.1854 22.0157C72.0279 8.80603 86.072 0 102.093 0C108.857 0 115.269 1.56949 121.009 4.38295C126.468 7.04987 131.322 10.8395 135.292 15.4578C148.773 15.6814 161.238 20.2636 171.441 27.9109C187.501 39.9416 197.953 59.5627 197.953 81.721Z" fill="url(#paint1_linear_616_20156)"/>
</g>
</g>
</g>
<path opacity="0.545118" d="M85.8357 30.7168C86.8748 30.7168 87.9137 30.3217 88.7044 29.5311C90.2864 27.95 90.2864 25.3775 88.7044 23.7967C87.1233 22.2162 84.5489 22.2156 82.9672 23.7967C81.3852 25.3778 81.3852 27.9503 82.9672 29.5311C83.7579 30.3217 84.7968 30.7168 85.8357 30.7168ZM85.8357 25.4061C86.158 25.4061 86.4806 25.5285 86.7263 25.7741C87.217 26.2646 87.217 27.063 86.7263 27.5537C86.2349 28.0442 85.437 28.0445 84.9456 27.5537C84.4549 27.0632 84.4549 26.2649 84.9456 25.7741C85.191 25.5288 85.5136 25.4061 85.8357 25.4061Z" fill="black" fill-opacity="0.4"/>
<path opacity="0.545118" d="M117.73 125.389C118.768 125.389 119.808 124.993 120.598 124.203C122.18 122.622 122.18 120.05 120.598 118.469C119.017 116.888 116.442 116.888 114.861 118.469C113.279 120.05 113.279 122.622 114.861 124.203C115.652 124.994 116.691 125.389 117.73 125.389ZM117.73 120.078C118.052 120.078 118.375 120.201 118.62 120.446C119.111 120.937 119.111 121.735 118.62 122.226C118.129 122.717 117.331 122.717 116.839 122.226C116.349 121.735 116.349 120.937 116.839 120.446C117.085 120.201 117.407 120.078 117.73 120.078Z" fill="black" fill-opacity="0.4"/>
<path d="M46.7991 106.291C47.157 106.291 47.5154 106.155 47.7882 105.882L49.4572 104.214L51.1261 105.882C51.672 106.428 52.5584 106.428 53.1043 105.882C53.6507 105.336 53.6507 104.45 53.1043 103.904L50.4462 101.248C49.9004 100.702 49.014 100.702 48.4681 101.248L45.81 103.904C45.2636 104.451 45.2636 105.336 45.81 105.882C46.0828 106.154 46.4412 106.291 46.7991 106.291Z" fill="black" fill-opacity="0.3"/>
<path d="M145.472 100.964C145.83 100.964 146.189 100.827 146.462 100.554L148.131 98.8866L149.8 100.554C150.345 101.1 151.232 101.1 151.778 100.554C152.324 100.008 152.324 99.1229 151.778 98.577L149.12 95.9204C148.574 95.3745 147.687 95.3745 147.141 95.9204L144.483 98.577C143.937 99.1232 143.937 100.009 144.483 100.554C144.756 100.827 145.115 100.964 145.472 100.964Z" fill="black" fill-opacity="0.4"/>
<g filter="url(#filter0_d_616_20156)">
<path d="M136.543 64.4462L99.8982 87.7548C99.4796 88.0638 98.985 88.216 98.4903 88.216C97.9956 88.216 97.5009 88.0638 97.0823 87.7548L60.438 64.4462L97.0633 36.3978C97.91 35.7655 99.0706 35.7655 99.9172 36.3978L136.543 64.4462Z" fill="url(#paint2_linear_616_20156)" fill-opacity="0.4" stroke="black" stroke-opacity="0.5" stroke-width="1.38827"/>
<path opacity="0.32" d="M74.7076 35.9221H122.273C124.894 35.9221 127.029 38.0566 127.029 40.6761V92.9697C127.029 94.2817 125.964 95.3466 124.651 95.3466H72.3294C71.0166 95.3466 69.9511 94.2817 69.9511 92.9697V40.6761C69.9511 38.0566 72.082 35.9221 74.7076 35.9221Z" fill="url(#paint3_linear_616_20156)"/>
<path d="M96.112 64.4458C94.7992 64.4458 93.7337 65.5107 93.7337 66.8228C93.7337 68.1349 94.7992 69.1997 96.112 69.1997H115.138C116.451 69.1997 117.516 68.1349 117.516 66.8228C117.516 65.5107 116.451 64.4458 115.138 64.4458H96.112ZM81.8424 54.9379C80.5296 54.9379 79.4641 56.0027 79.4641 57.3148C79.4641 58.6269 80.5296 59.6918 81.8424 59.6918H115.138C116.451 59.6918 117.516 58.6269 117.516 57.3148C117.516 56.0027 116.451 54.9379 115.138 54.9379H81.8424ZM81.8424 45.4299C80.5296 45.4299 79.4641 46.4948 79.4641 47.8069C79.4641 49.119 80.5296 50.1839 81.8424 50.1839H115.138C116.451 50.1839 117.516 49.119 117.516 47.8069C117.516 46.4948 116.451 45.4299 115.138 45.4299H81.8424Z" stroke="black" stroke-opacity="0.5" stroke-width="1.38827" stroke-dasharray="2.31 2.31"/>
<path d="M97.0823 87.7545C97.5009 88.0635 97.9956 88.2156 98.4903 88.2156C98.985 88.2156 99.4796 88.0635 99.8982 87.7545L136.543 64.4458V107.231C136.543 109.856 134.412 111.985 131.786 111.985H65.1946C62.569 111.985 60.438 109.856 60.438 107.231V64.4458L97.0823 87.7545Z" fill="black" fill-opacity="0.3"/>
<path d="M97.0823 87.7545C97.5009 88.0635 97.9956 88.2156 98.4903 88.2156C98.985 88.2156 99.4796 88.0635 99.8982 87.7545L136.543 64.4458V107.231C136.543 109.856 134.412 111.985 131.786 111.985H65.1946C62.569 111.985 60.438 109.856 60.438 107.231V64.4458L97.0823 87.7545Z" fill="#F4F4F4" stroke="#919EAB" stroke-opacity="0.48" stroke-width="1.73534"/>
<path fill-rule="evenodd" clip-rule="evenodd" d="M65.1946 111.985H131.786C134.454 111.985 136.543 109.898 136.543 107.232C136.543 106.476 136.181 105.763 135.572 105.316L99.8982 81.5458C99.4796 81.2368 98.985 81.0847 98.4903 81.0847C97.9956 81.0847 97.5009 81.2368 97.0823 81.5458L61.4084 105.316C60.7995 105.763 60.438 106.476 60.438 107.232C60.438 109.898 62.5262 111.985 65.1946 111.985Z" fill="url(#paint4_linear_616_20156)" fill-opacity="0.4" stroke="#919EAB" stroke-opacity="0.48" stroke-width="1.73534"/>
</g>
</g>
<defs>
<filter id="filter0_d_616_20156" x="45.2276" y="21.2295" width="134.525" height="133.624" filterUnits="userSpaceOnUse" color-interpolation-filters="sRGB">
<feFlood flood-opacity="0" result="BackgroundImageFix"/>
<feColorMatrix in="SourceAlpha" type="matrix" values="0 0 0 0 0 0 0 0 0 0 0 0 0 0 0 0 0 0 127 0" result="hardAlpha"/>
<feOffset dx="14" dy="14"/>
<feGaussianBlur stdDeviation="14"/>
<feColorMatrix type="matrix" values="0 0 0 0 0.270588 0 0 0 0 0.309804 0 0 0 0 0.356863 0 0 0 0.24 0"/>
<feBlend mode="normal" in2="BackgroundImageFix" result="effect1_dropShadow_616_20156"/>
<feBlend mode="normal" in="SourceGraphic" in2="effect1_dropShadow_616_20156" result="shape"/>
</filter>
<linearGradient id="paint0_linear_616_20156" x1="62.3831" y1="174.324" x2="-10.0705" y2="10.5527" gradientUnits="userSpaceOnUse">
<stop stop-color="#919EAB"/>
<stop offset="1" stop-color="#919EAB" stop-opacity="0.01"/>
</linearGradient>
<linearGradient id="paint1_linear_616_20156" x1="197.953" y1="0" x2="-23.5731" y2="89.6088" gradientUnits="userSpaceOnUse">
<stop stop-color="#3A71C8"/>
<stop offset="1" stop-color="#1450B0"/>
</linearGradient>
<linearGradient id="paint2_linear_616_20156" x1="136.543" y1="35.9236" x2="53.5097" y2="72.4786" gradientUnits="userSpaceOnUse">
<stop stop-color="#3A71C8"/>
<stop offset="1" stop-color="#1450B0"/>
</linearGradient>
<linearGradient id="paint3_linear_616_20156" x1="127.029" y1="35.9221" x2="58.4727" y2="55.8418" gradientUnits="userSpaceOnUse">
<stop stop-color="#3A71C8"/>
<stop offset="1" stop-color="#1450B0"/>
</linearGradient>
<linearGradient id="paint4_linear_616_20156" x1="136.543" y1="81.0847" x2="72.7979" y2="128.576" gradientUnits="userSpaceOnUse">
<stop stop-color="#3A71C8"/>
<stop offset="1" stop-color="#1450B0"/>
</linearGradient>
<clipPath id="clip0_616_20156">
<rect width="197.907" height="148" fill="white" transform="matrix(-1 0 0 1 197.953 0)"/>
</clipPath>
</defs>
</svg>
